<svg xmlns="http://www.w3.org/2000/svg" width="14.401" height="16.842" viewBox="0 0 14.401 16.842"><defs><style>.a{fill:#e9e9e9;stroke:#fff;stroke-width:0.3px;}</style></defs><g transform="translate(0.15 0.15)"><path class="a" d="M1174.567,2241.132a2.02,2.02,0,1,1-2.021,2.02,2.022,2.022,0,0,1,2.021-2.02m0-1.61a3.63,3.63,0,1,0,3.63,3.63,3.634,3.634,0,0,0-3.63-3.63Z" transform="translate(-1167.516 -2239.522)"/><path class="a" d="M1165.239,2271.379a5.447,5.447,0,0,1,5.436,5.206H1159.8a5.447,5.447,0,0,1,5.436-5.206m0-1.61a7.058,7.058,0,0,0-7.05,7.05,1.376,1.376,0,0,0,1.376,1.376h11.349a1.376,1.376,0,0,0,1.376-1.376,7.059,7.059,0,0,0-7.051-7.05Z" transform="translate(-1158.189 -2261.653)"/></g></svg>