<svg xmlns="http://www.w3.org/2000/svg" xmlns:xlink="http://www.w3.org/1999/xlink" width="156" height="37" viewBox="0 0 156 37"><defs><style>.a,.d{fill:#fff;}.a{font-size:24px;font-family:ArialMT, Arial;}.b{fill:#e6216a;}.c{opacity:0.2;fill:url(#a);}</style><linearGradient id="a" x1="0.5" x2="0.5" y2="1" gradientUnits="objectBoundingBox"><stop offset="0" stop-color="#fff"/><stop offset="0.158" stop-color="#fff" stop-opacity="0.863"/><stop offset="0.508" stop-color="#fff" stop-opacity="0.518"/><stop offset="0.995" stop-color="#fff" stop-opacity="0"/></linearGradient></defs><g transform="translate(0.017 -0.323)"><text class="a" transform="translate(41.983 27.323)"><tspan x="0" y="0">JioCinema</tspan></text><g transform="translate(0 0)"><circle class="b" cx="18.5" cy="18.5" r="18.5" transform="translate(-0.017 0.323)"/><circle class="c" cx="18.5" cy="18.5" r="18.5" transform="translate(-0.017 0.323)"/><g transform="translate(7.353 8.029)"><g transform="translate(0.514 7.679)"><path class="d" d="M445.876,370.325v11.087a2.4,2.4,0,0,0,2.395,2.395h17.208a2.4,2.4,0,0,0,2.4-2.4v-9.879a1.208,1.208,0,0,0-1.208-1.208H445.883m13.51,7.206-3.19,2.532a.658.658,0,0,1-1.123-.466v-5.064a.658.658,0,0,1,1.123-.465l3.19,2.532A.657.657,0,0,1,459.393,377.531Z" transform="translate(-445.876 -370.325)"/></g><path class="d" d="M467.363,364.08l-.337-2.42a1.2,1.2,0,0,0-1.351-1.021l-.378.052-1.2,3.87-3.476.484,1.2-3.87-1.338.186-1.965.274-1.2,3.872-3.476.484,1.2-3.873-1.373.192-1.931.268-1.2,3.873-3.476.484,1.2-3.873-2,.279a1.2,1.2,0,0,0-1.021,1.351l.341,2.449.162,1.166,20.593-2.865A1.208,1.208,0,0,0,467.363,364.08Z" transform="translate(-445.226 -360.627)"/></g></g></g></svg>